<?xml version="1.0" encoding="UTF-8" standalone="no"?><!DOCTYPE svg PUBLIC "-//W3C//DTD SVG 1.1//EN" "http://www.w3.org/Graphics/SVG/1.1/DTD/svg11.dtd"><svg viewBox="0 0 800 800" xmlns="http://www.w3.org/2000/svg" xmlns:xlink="http://www.w3.org/1999/xlink"><style>:root>svg{display:none}:root>svg:target{display:block}</style><svg viewBox="0 0 62 62" id="01d" xmlns="http://www.w3.org/2000/svg"><g stroke="#20343f" stroke-width="2" fill="none" fill-rule="evenodd"><circle cx="31" cy="31" r="17"/><path d="M31 51v11M31 0v11M11 31H0M62 31H51M16.6 45.4l-7.5 7.5M52.9 9.1l-7.5 7.5M45.4 45.4l7.5 7.5M9.1 9.1l7.5 7.5"/></g></svg><svg viewBox="0 0 67 67" id="01n" xmlns="http://www.w3.org/2000/svg"><path d="M49.7 47.8c-17.9 0-32.4-14.5-32.4-32.4 0-4.8 1-9.3 2.9-13.3C8.9 7.2 1.1 18.5 1.1 31.7c0 17.9 14.5 32.4 32.4 32.4 13.2 0 24.5-7.8 29.6-19.1-4.2 1.8-8.7 2.8-13.4 2.8Z" stroke="#20343f" stroke-width="2" fill="none" fill-rule="evenodd"/></svg><svg viewBox="0 -8.5 64 64" id="02d" xmlns="http://www.w3.org/2000/svg"><g stroke="#20343f" stroke-width="2" fill="none" fill-rule="evenodd"><path d="M14.7 18.9c2.9-5.3 8.6-8.9 15.1-8.9C39.3 10 47 17.6 47 27.1c0 1.3-.2 2.6-.4 3.8"/><path d="M47.4 24.5c1.1-.4 2.3-.5 3.5-.5C57 24 62 28.9 62 35s-5 11-11.1 11H13.6C6.1 46 1 39.9 1 32.5 1 25 6.1 19 13.6 19c3.5 0 6.7 1.3 9.1 3.4M37.2 11c2-2.4 5.1-4 8.5-4 6.1 0 11 4.9 11 11 0 2.2-.7 4.3-1.8 6M46 0v4M33 5.3l2.8 2.8M64 18h-4.8M58.5 5.3l-2.9 2.8"/></g></svg><svg viewBox="0 -4.5 64 64" id="02n" xmlns="http://www.w3.org/2000/svg"><g stroke="#20343f" stroke-width="2" fill="none" fill-rule="evenodd"><path d="M45.7 26.7c1 .2 2 .2 3.1.2 5.3-.3 9.6-3.8 11.4-8.4-1.6.8-3.4 1.4-5.3 1.5-7.2.5-13.4-5-13.8-12.2-.1-1.9.2-3.7.8-5.4-4.4 2.3-7.2 7.1-6.9 12.4.1 1.2.3 2.4.7 3.5"/><path d="M15.7 26.9c2.9-5.3 8.6-8.9 15.1-8.9C40.3 18 48 25.6 48 35.1c0 1.3-.2 2.6-.4 3.8"/><path d="M48.4 32.5c1.1-.4 2.3-.5 3.5-.5C58 32 63 36.9 63 43s-5 11-11.1 11H14.6C7.1 54 1 47.9 1 40.5 1 33 7.1 27 14.6 27c3.5 0 6.7 1.3 9.1 3.4"/></g></svg><svg viewBox="0 -16 65 65" id="03d" xmlns="http://www.w3.org/2000/svg"><g stroke="#20343f" stroke-width="2" fill="none" fill-rule="evenodd"><path d="M33.5 7.9c1.9-3.5 5.5-6 9.7-6 6.1 0 11.1 5.1 11.1 11.4 0 .9-.1 1.7-.3 2.6"/><path d="M27.2 10.1C28.7 8.8 30.7 8 32.8 8c2.2 0 4.3.9 5.9 2.3M54.6 11.5c.7-.2 1.5-.4 2.2-.4 4 0 7.2 3.4 7.2 7.5s-3.2 7.5-7.2 7.5H42"/><path d="M11.5 13.7C13.4 10.3 17 8 21.2 8c6.1 0 11.1 4.9 11.1 10.9 0 .8-.1 1.7-.3 2.5"/><path d="M32.6 17.4c.7-.2 1.5-.3 2.2-.3 4 0 7.2 3.1 7.2 7s-3.2 7-7.2 7H10.7c-4.8 0-8.8-3.8-8.8-8.6 0-4.7 3.9-8.6 8.8-8.6 2.2 0 4.3.8 5.9 2.2"/></g></svg><svg viewBox="0 -16 65 65" id="03n" xmlns="http://www.w3.org/2000/svg"><g stroke="#20343f" stroke-width="2" fill="none" fill-rule="evenodd"><path d="M33.5 7.9c1.9-3.5 5.5-6 9.7-6 6.1 0 11.1 5.1 11.1 11.4 0 .9-.1 1.7-.3 2.6"/><path d="M27.2 10.1C28.7 8.8 30.7 8 32.8 8c2.2 0 4.3.9 5.9 2.3M54.6 11.5c.7-.2 1.5-.4 2.2-.4 4 0 7.2 3.4 7.2 7.5s-3.2 7.5-7.2 7.5H42"/><path d="M11.5 13.7C13.4 10.3 17 8 21.2 8c6.1 0 11.1 4.9 11.1 10.9 0 .8-.1 1.7-.3 2.5"/><path d="M32.6 17.4c.7-.2 1.5-.3 2.2-.3 4 0 7.2 3.1 7.2 7s-3.2 7-7.2 7H10.7c-4.8 0-8.8-3.8-8.8-8.6 0-4.7 3.9-8.6 8.8-8.6 2.2 0 4.3.8 5.9 2.2"/></g></svg><svg viewBox="0 -16 65 65" id="04d" xmlns="http://www.w3.org/2000/svg"><g stroke="#20343f" stroke-width="2" fill="none" fill-rule="evenodd"><path d="M33.5 7.9c1.9-3.5 5.5-6 9.7-6 6.1 0 11.1 5.1 11.1 11.4 0 .9-.1 1.7-.3 2.6"/><path d="M27.2 10.1C28.7 8.8 30.7 8 32.8 8c2.2 0 4.3.9 5.9 2.3M54.6 11.5c.7-.2 1.5-.4 2.2-.4 4 0 7.2 3.4 7.2 7.5s-3.2 7.5-7.2 7.5H42"/><path d="M11.5 13.7C13.4 10.3 17 8 21.2 8c6.1 0 11.1 4.9 11.1 10.9 0 .8-.1 1.7-.3 2.5"/><path d="M32.6 17.4c.7-.2 1.5-.3 2.2-.3 4 0 7.2 3.1 7.2 7s-3.2 7-7.2 7H10.7c-4.8 0-8.8-3.8-8.8-8.6 0-4.7 3.9-8.6 8.8-8.6 2.2 0 4.3.8 5.9 2.2"/></g></svg><svg viewBox="0 -16 65 65" id="04n" xmlns="http://www.w3.org/2000/svg"><g stroke="#20343f" stroke-width="2" fill="none" fill-rule="evenodd"><path d="M33.5 7.9c1.9-3.5 5.5-6 9.7-6 6.1 0 11.1 5.1 11.1 11.4 0 .9-.1 1.7-.3 2.6"/><path d="M27.2 10.1C28.7 8.8 30.7 8 32.8 8c2.2 0 4.3.9 5.9 2.3M54.6 11.5c.7-.2 1.5-.4 2.2-.4 4 0 7.2 3.4 7.2 7.5s-3.2 7.5-7.2 7.5H42"/><path d="M11.5 13.7C13.4 10.3 17 8 21.2 8c6.1 0 11.1 4.9 11.1 10.9 0 .8-.1 1.7-.3 2.5"/><path d="M32.6 17.4c.7-.2 1.5-.3 2.2-.3 4 0 7.2 3.1 7.2 7s-3.2 7-7.2 7H10.7c-4.8 0-8.8-3.8-8.8-8.6 0-4.7 3.9-8.6 8.8-8.6 2.2 0 4.3.8 5.9 2.2"/></g></svg><svg viewBox="0 -7 64 64" id="09d" xmlns="http://www.w3.org/2000/svg"><g stroke-width="2" stroke="#20343f" fill="none" fill-rule="evenodd"><path d="M15.7 9.9C18.6 4.6 24.3 1 30.8 1 40.3 1 48 8.6 48 18.1c0 1.3-.2 2.6-.4 3.8"/><path d="M48.4 15.6c1.1-.4 2.3-.5 3.5-.5C58 15.1 63 20 63 26.1s-5 11-11.1 11H14.6C7.1 37.1 1 31 1 23.6c0-7.5 6.1-13.5 13.6-13.5 3.5 0 6.7 1.3 9.1 3.4M9 41.1l-4 8M17 41.1l-3 6M25 41.1l-4 8M39 41.1l-4 8M47 41.1l-3 6M32 41.1l-3 6M55 41.1l-4 8"/></g></svg><svg viewBox="0 -7 64 64" id="09n" xmlns="http://www.w3.org/2000/svg"><g stroke-width="2" stroke="#20343f" fill="none" fill-rule="evenodd"><path d="M15.7 9.9C18.6 4.6 24.3 1 30.8 1 40.3 1 48 8.6 48 18.1c0 1.3-.2 2.6-.4 3.8"/><path d="M48.4 15.6c1.1-.4 2.3-.5 3.5-.5C58 15.1 63 20 63 26.1s-5 11-11.1 11H14.6C7.1 37.1 1 31 1 23.6c0-7.5 6.1-13.5 13.6-13.5 3.5 0 6.7 1.3 9.1 3.4M9 41.1l-4 8M17 41.1l-3 6M25 41.1l-4 8M39 41.1l-4 8M47 41.1l-3 6M32 41.1l-3 6M55 41.1l-4 8"/></g></svg><svg viewBox="0 -2.5 64 64" id="10d" xmlns="http://www.w3.org/2000/svg"><g stroke="#20343f" stroke-width="2" fill="none" fill-rule="evenodd"><path d="M15.7 18.9c2.9-5.3 8.6-8.9 15.1-8.9C40.3 10 48 17.6 48 27.1c0 1.3-.2 2.6-.4 3.8"/><path d="M48.4 24.5c1.1-.4 2.3-.5 3.5-.5C58 24 63 28.9 63 35s-5 11-11.1 11H14.6C7.1 46 1 39.9 1 32.5 1 25 7.1 19 14.6 19c3.5 0 6.7 1.3 9.1 3.4M38.2 11c2-2.4 5.1-4 8.5-4 6.1 0 11 4.9 11 11 0 2.2-.7 4.3-1.8 6M46 0v4M34 5.3l2.8 2.8M64 18h-3M59.5 5.3l-2.9 2.8M18 50l-4 8M32 50l-4 8M47 50l-4 8"/></g></svg><svg viewBox="0 -6.5 64 64" id="10n" xmlns="http://www.w3.org/2000/svg"><g stroke-width="2" stroke="#20343f" fill="none" fill-rule="evenodd"><path d="M15.7 10.8c2.9-5.3 8.6-8.9 15.1-8.9C40.3 1.9 48 9.5 48 19c0 1.3-.2 2.6-.4 3.8"/><path d="M48.4 16.4c1.1-.4 2.3-.5 3.5-.5 6.1 0 11.1 4.9 11.1 11s-5 11-11.1 11H14.6C7.1 37.9 1 31.8 1 24.4c0-7.5 6.1-13.5 13.6-13.5 3.5 0 6.7 1.3 9.1 3.4M18 42l-3 6M26 42l-4 8M40 42l-4 8M48 42l-3 6M33 42l-3 6"/></g></svg><svg viewBox="0 -5.5 64 64" id="11d" xmlns="http://www.w3.org/2000/svg"><g stroke-width="2" stroke="#20343f" fill="none" fill-rule="evenodd"><path d="M15.7 9.9C18.6 4.6 24.3 1 30.8 1 40.3 1 48 8.6 48 18.1c0 1.3-.2 2.6-.4 3.8"/><path d="M28 37H14.6C7.1 37 1 30.9 1 23.5 1 16 7.1 10 14.6 10c3.5 0 6.7 1.3 9.1 3.4M48.4 15.5c1.1-.4 2.3-.5 3.5-.5C58 15 63 19.9 63 26s-5 11-11.1 11H36M18 41l-4 8M35 32l-7 12 6-2-6 10M47 41l-4 8"/></g></svg><svg viewBox="0 -5.5 64 64" id="11n" xmlns="http://www.w3.org/2000/svg"><g stroke-width="2" stroke="#20343f" fill="none" fill-rule="evenodd"><path d="M15.7 9.9C18.6 4.6 24.3 1 30.8 1 40.3 1 48 8.6 48 18.1c0 1.3-.2 2.6-.4 3.8"/><path d="M28 37H14.6C7.1 37 1 30.9 1 23.5 1 16 7.1 10 14.6 10c3.5 0 6.7 1.3 9.1 3.4M48.4 15.5c1.1-.4 2.3-.5 3.5-.5C58 15 63 19.9 63 26s-5 11-11.1 11H36M18 41l-4 8M35 32l-7 12 6-2-6 10M47 41l-4 8"/></g></svg><svg viewBox="0 0 512 512" xml:space="preserve" id="13d" xmlns="http://www.w3.org/2000/svg"><path d="m458.071 306.273-9.519-21.579-65.885 29.07-43.103-24.899 74.607-32.879-74.589-32.87 43.085-24.863 65.885 29.07 9.536-21.624L408 183.596l76.363-44.053-13.318-23.044-76.362 44.08 5.917-54.422-23.47-2.561-7.782 71.576-43.085 24.89 8.83-81.022-65.777 48.152V117.43l58.123-42.542-13.934-19.055-44.19 32.354V0h-26.6v88.187l-44.17-32.354-13.952 19.055 58.122 42.542v49.762l-65.777-48.134 8.795 80.995-43.049-24.882-7.799-71.576-23.47 2.561 5.916 54.422-76.344-44.08-13.318 23.044 76.363 44.053-50.088 22.103 9.519 21.624 65.867-29.07 43.122 24.863-74.59 32.888 24.501 10.803 50.089 22.076-43.104 24.882-65.885-29.07-9.536 21.579 50.106 22.112-76.399 44.099 13.354 23.054 76.363-44.098-5.935 54.412 23.47 2.551 7.781-71.594 43.068-24.863-8.813 81.013 65.794-48.151v49.771l-58.122 42.525 13.952 19.036 44.17-32.328V512h26.6v-88.188l44.19 32.328 13.934-19.036-58.123-42.542v-49.736l65.777 48.143-8.812-81.022 43.067 24.863 7.818 71.594 23.434-2.551-5.9-54.412 76.345 44.098 13.318-23.054-76.381-44.099 50.088-22.113zm-301.686-50.269 41.366-18.24 31.631 18.24-31.612 18.268-41.385-18.268zm86.333 59.552-36.534 26.727 4.904-44.958 31.63-18.267v36.498zm0-82.614-31.63-18.25-4.904-44.967 36.534 26.718v36.499zm26.6-36.499 36.535-26.718-4.922 44.967-31.613 18.25v-36.499zm0 119.113v-36.498l31.613 18.267 4.922 44.958-36.535-26.727zm44.93-41.284-31.612-18.268 31.631-18.24 41.384 18.24-41.403 18.268z" style="fill:#20343f"/></svg><svg viewBox="0 0 512 512" xml:space="preserve" id="13n" xmlns="http://www.w3.org/2000/svg"><path d="m458.071 306.273-9.519-21.579-65.885 29.07-43.103-24.899 74.607-32.879-74.589-32.87 43.085-24.863 65.885 29.07 9.536-21.624L408 183.596l76.363-44.053-13.318-23.044-76.362 44.08 5.917-54.422-23.47-2.561-7.782 71.576-43.085 24.89 8.83-81.022-65.777 48.152V117.43l58.123-42.542-13.934-19.055-44.19 32.354V0h-26.6v88.187l-44.17-32.354-13.952 19.055 58.122 42.542v49.762l-65.777-48.134 8.795 80.995-43.049-24.882-7.799-71.576-23.47 2.561 5.916 54.422-76.344-44.08-13.318 23.044 76.363 44.053-50.088 22.103 9.519 21.624 65.867-29.07 43.122 24.863-74.59 32.888 24.501 10.803 50.089 22.076-43.104 24.882-65.885-29.07-9.536 21.579 50.106 22.112-76.399 44.099 13.354 23.054 76.363-44.098-5.935 54.412 23.47 2.551 7.781-71.594 43.068-24.863-8.813 81.013 65.794-48.151v49.771l-58.122 42.525 13.952 19.036 44.17-32.328V512h26.6v-88.188l44.19 32.328 13.934-19.036-58.123-42.542v-49.736l65.777 48.143-8.812-81.022 43.067 24.863 7.818 71.594 23.434-2.551-5.9-54.412 76.345 44.098 13.318-23.054-76.381-44.099 50.088-22.113zm-301.686-50.269 41.366-18.24 31.631 18.24-31.612 18.268-41.385-18.268zm86.333 59.552-36.534 26.727 4.904-44.958 31.63-18.267v36.498zm0-82.614-31.63-18.25-4.904-44.967 36.534 26.718v36.499zm26.6-36.499 36.535-26.718-4.922 44.967-31.613 18.25v-36.499zm0 119.113v-36.498l31.613 18.267 4.922 44.958-36.535-26.727zm44.93-41.284-31.612-18.268 31.631-18.24 41.384 18.24-41.403 18.268z" style="fill:#20343f"/></svg><svg fill="#20343f" viewBox="0 0 60 60" xml:space="preserve" id="404" xmlns="http://www.w3.org/2000/svg"><path d="M9 39h6v8a1 1 0 0 0 2 0v-8h3a1 1 0 0 0 0-2h-3v-2a1 1 0 0 0-2 0v2h-5V27a1 1 0 0 0-2 0v11a1 1 0 0 0 1 1zM40 39h6v8a1 1 0 0 0 2 0v-8h3a1 1 0 0 0 0-2h-3v-2a1 1 0 0 0-2 0v2h-5V27a1 1 0 0 0-2 0v11a1 1 0 0 0 1 1zM29.5 48c3.584 0 6.5-2.916 6.5-6.5v-9c0-3.584-2.916-6.5-6.5-6.5S23 28.916 23 32.5v9c0 3.584 2.916 6.5 6.5 6.5zM25 32.5c0-2.481 2.019-4.5 4.5-4.5s4.5 2.019 4.5 4.5v9c0 2.481-2.019 4.5-4.5 4.5S25 43.981 25 41.5v-9z"/><path d="M0 0v60h60V0H0zm2 2h56v10H2V2zm56 56H2V14h56v44z"/><path d="M54.293 3.293 52 5.586l-2.293-2.293-1.414 1.414L50.586 7l-2.293 2.293 1.414 1.414L52 8.414l2.293 2.293 1.414-1.414L53.414 7l2.293-2.293zM3 11h39V3H3v8zm2-6h35v4H5V5z"/></svg><svg fill="#20343f" viewBox="0 0 476.314 476.314" xml:space="preserve" id="50d" xmlns="http://www.w3.org/2000/svg"><path d="M472.733 166.057c-3.5-2.9-34.8-28.5-56.8-28.5-13 0-23 8.1-31.9 15.3-6.9 5.5-13.4 10.8-19.4 10.8-5.4 0-11.6-5.1-18.2-10.5-8.9-7.3-19-15.6-32.2-15.6-13.1 0-22.9 8.2-31.6 15.4-6.7 5.6-12.9 10.8-18.8 10.8-6.1 0-12.6-5.3-19.5-11-8.6-7.1-18.4-15.1-30.9-15.1-13 0-23 8.1-31.9 15.3-6.9 5.5-13.4 10.8-19.4 10.8-5.9 0-12.2-5.3-18.8-10.8-8.7-7.2-18.5-15.4-31.6-15.4-13.1 0-22.9 8.2-31.6 15.4-6.7 5.6-12.9 10.8-18.8 10.8-10.6 0-32.7-14-45-23.9-4.3-3.5-10.6-2.8-14.1 1.5s-2.8 10.6 1.5 14.1c3.6 2.9 35.7 28.4 57.6 28.4 13.1 0 22.9-8.2 31.6-15.4 6.7-5.6 12.9-10.8 18.8-10.8s12.2 5.3 18.8 10.8c8.7 7.2 18.5 15.4 31.6 15.4 13 0 23-8.1 31.9-15.3 6.9-5.5 13.4-10.8 19.4-10.8 5.4 0 11.6 5.1 18.2 10.5 8.9 7.3 19 15.6 32.2 15.6 13.1 0 22.9-8.2 31.6-15.4 6.7-5.6 12.9-10.8 18.8-10.8 6.1 0 12.6 5.3 19.5 11 8.6 7.1 18.4 15.1 30.9 15.1 13 0 23-8.1 31.9-15.3 6.9-5.5 13.4-10.8 19.4-10.8 10.5 0 32 13.9 43.9 23.8 1.9 1.5 4.1 2.3 6.4 2.3 2.9 0 5.7-1.2 7.8-3.6 3.5-4.3 2.9-10.6-1.3-14.1zM3.733 77.957c3.6 2.9 35.7 28.4 57.6 28.4 13.1 0 22.9-8.2 31.6-15.4 6.7-5.6 12.9-10.8 18.8-10.8s12.2 5.3 18.8 10.8c8.7 7.2 18.5 15.4 31.6 15.4 13 0 23-8.1 31.9-15.3 6.9-5.5 13.4-10.8 19.4-10.8 5.4 0 11.6 5.1 18.2 10.5 8.9 7.3 19 15.6 32.2 15.6 13.1 0 22.9-8.2 31.6-15.4 6.7-5.6 12.9-10.8 18.8-10.8 6.1 0 12.6 5.3 19.5 11 8.6 7.1 18.4 15.1 30.9 15.1 13 0 23-8.1 31.9-15.3 6.9-5.5 13.4-10.8 19.4-10.8 10.5 0 32 13.9 43.9 23.8 1.9 1.5 4.1 2.3 6.4 2.3 2.9 0 5.7-1.2 7.8-3.6 3.5-4.3 2.9-10.6-1.3-14.1-3.5-3-34.8-28.5-56.8-28.5-13 0-23 8.1-31.9 15.3-6.9 5.5-13.4 10.8-19.4 10.8-5.4 0-11.6-5.1-18.2-10.5-8.9-7.3-19-15.6-32.2-15.6-13.1 0-22.9 8.2-31.6 15.4-6.7 5.6-12.9 10.8-18.8 10.8-6.1 0-12.6-5.3-19.5-11-8.6-7.1-18.4-15.1-30.9-15.1-13 0-23 8.1-31.9 15.3-6.9 5.5-13.4 10.8-19.4 10.8-5.9 0-12.2-5.3-18.8-10.8-8.7-7.2-18.5-15.4-31.6-15.4-13.1 0-22.9 8.2-31.6 15.4-6.7 5.6-12.9 10.8-18.8 10.8-10.6 0-32.7-14-45-23.9-4.3-3.5-10.6-2.8-14.1 1.5s-2.8 10.6 1.5 14.1zM472.733 320.957c-3.5-2.9-34.8-28.5-56.8-28.5-13 0-23 8.1-31.9 15.3-6.9 5.5-13.4 10.8-19.4 10.8-5.4 0-11.6-5.1-18.2-10.5-8.9-7.3-19-15.6-32.2-15.6-13.1 0-22.9 8.2-31.6 15.4-6.7 5.6-12.9 10.8-18.8 10.8-6.1 0-12.6-5.3-19.5-11-8.6-7.1-18.4-15.1-30.9-15.1-13 0-23 8.1-31.9 15.3-6.9 5.5-13.4 10.8-19.4 10.8-5.9 0-12.2-5.3-18.8-10.8-8.7-7.2-18.5-15.4-31.6-15.4-13.1 0-22.9 8.2-31.6 15.4-6.7 5.6-12.9 10.8-18.8 10.8-10.6 0-32.7-14-45-23.9-4.3-3.5-10.6-2.8-14.1 1.5s-2.8 10.6 1.5 14.1c3.6 2.9 35.7 28.4 57.6 28.4 13.1 0 22.9-8.2 31.6-15.4 6.7-5.6 12.9-10.8 18.8-10.8s12.2 5.3 18.8 10.8c8.7 7.2 18.5 15.4 31.6 15.4 13 0 23-8.1 31.9-15.3 6.9-5.5 13.4-10.8 19.4-10.8 5.4 0 11.6 5.1 18.2 10.5 8.9 7.3 19 15.6 32.2 15.6 13.1 0 22.9-8.2 31.6-15.4 6.7-5.6 12.9-10.8 18.8-10.8 6.1 0 12.6 5.3 19.5 11 8.6 7.1 18.4 15.1 30.9 15.1 13 0 23-8.1 31.9-15.3 6.9-5.5 13.4-10.8 19.4-10.8 10.5 0 32 13.9 43.9 23.8 1.9 1.5 4.1 2.3 6.4 2.3 2.9 0 5.7-1.2 7.8-3.6 3.5-4.3 2.9-10.6-1.3-14.1zM472.733 243.557c-3.5-2.9-34.8-28.5-56.8-28.5-13 0-23 8.1-31.9 15.3-6.9 5.5-13.4 10.8-19.4 10.8-5.4 0-11.6-5.1-18.2-10.5-8.9-7.3-19-15.6-32.2-15.6-13.1 0-22.9 8.2-31.6 15.4-6.7 5.6-12.9 10.8-18.8 10.8-6.1 0-12.6-5.3-19.5-11-8.6-7.1-18.4-15.1-30.9-15.1-13 0-23 8.1-31.9 15.3-6.9 5.5-13.4 10.8-19.4 10.8-5.9 0-12.2-5.3-18.8-10.8-8.7-7.2-18.5-15.4-31.6-15.4-13.1 0-22.9 8.2-31.6 15.4-6.7 5.6-12.9 10.8-18.8 10.8-10.6 0-32.7-14-45-23.9-4.3-3.5-10.6-2.8-14.1 1.5s-2.8 10.6 1.5 14.1c3.6 2.9 35.7 28.4 57.6 28.4 13.1 0 22.9-8.2 31.6-15.4 6.7-5.6 12.9-10.8 18.8-10.8s12.2 5.3 18.8 10.8c8.7 7.2 18.5 15.4 31.6 15.4 13 0 23-8.1 31.9-15.3 6.9-5.5 13.4-10.8 19.4-10.8 5.4 0 11.6 5.1 18.2 10.5 8.9 7.3 19 15.6 32.2 15.6 13.1 0 22.9-8.2 31.6-15.4 6.7-5.6 12.9-10.8 18.8-10.8 6.1 0 12.6 5.3 19.5 11 8.6 7.1 18.4 15.1 30.9 15.1 13 0 23-8.1 31.9-15.3 6.9-5.5 13.4-10.8 19.4-10.8 10.5 0 32 13.9 43.9 23.8 1.9 1.5 4.1 2.3 6.4 2.3 2.9 0 5.7-1.3 7.8-3.6 3.5-4.3 2.9-10.6-1.3-14.1zM472.733 398.457c-3.5-3-34.8-28.5-56.8-28.5-13 0-23 8.1-31.9 15.3-6.9 5.5-13.4 10.8-19.4 10.8-5.4 0-11.6-5.1-18.2-10.5-8.9-7.3-19-15.6-32.2-15.6-13.1 0-22.9 8.2-31.6 15.4-6.7 5.6-12.9 10.8-18.8 10.8-6.1 0-12.6-5.3-19.5-11-8.6-7.1-18.4-15.1-30.9-15.1-13 0-23 8.1-31.9 15.3-6.9 5.5-13.4 10.8-19.4 10.8-5.9 0-12.2-5.3-18.8-10.8-8.7-7.2-18.5-15.4-31.6-15.4-13.1 0-22.9 8.2-31.6 15.4-6.7 5.6-12.9 10.8-18.8 10.8-10.6 0-32.7-14-45-23.9-4.3-3.5-10.6-2.8-14.1 1.5s-2.8 10.6 1.5 14.1c3.6 2.9 35.7 28.4 57.6 28.4 13.1 0 22.9-8.2 31.6-15.4 6.7-5.6 12.9-10.8 18.8-10.8s12.2 5.3 18.8 10.8c8.7 7.2 18.5 15.4 31.6 15.4 13 0 23-8.1 31.9-15.3 6.9-5.5 13.4-10.8 19.4-10.8 5.4 0 11.6 5.1 18.2 10.5 8.9 7.3 19 15.6 32.2 15.6 13.1 0 22.9-8.2 31.6-15.4 6.7-5.6 12.9-10.8 18.8-10.8 6.1 0 12.6 5.3 19.5 11 8.6 7.1 18.4 15.1 30.9 15.1 13 0 23-8.1 31.9-15.3 6.9-5.5 13.4-10.8 19.4-10.8 10.5 0 32 13.9 43.9 23.8 1.9 1.5 4.1 2.3 6.4 2.3 2.9 0 5.7-1.2 7.8-3.6 3.5-4.3 2.9-10.6-1.3-14.1z"/></svg><svg fill="#20343f" viewBox="0 0 476.314 476.314" xml:space="preserve" id="50n" xmlns="http://www.w3.org/2000/svg"><path d="M472.733 166.057c-3.5-2.9-34.8-28.5-56.8-28.5-13 0-23 8.1-31.9 15.3-6.9 5.5-13.4 10.8-19.4 10.8-5.4 0-11.6-5.1-18.2-10.5-8.9-7.3-19-15.6-32.2-15.6-13.1 0-22.9 8.2-31.6 15.4-6.7 5.6-12.9 10.8-18.8 10.8-6.1 0-12.6-5.3-19.5-11-8.6-7.1-18.4-15.1-30.9-15.1-13 0-23 8.1-31.9 15.3-6.9 5.5-13.4 10.8-19.4 10.8-5.9 0-12.2-5.3-18.8-10.8-8.7-7.2-18.5-15.4-31.6-15.4-13.1 0-22.9 8.2-31.6 15.4-6.7 5.6-12.9 10.8-18.8 10.8-10.6 0-32.7-14-45-23.9-4.3-3.5-10.6-2.8-14.1 1.5s-2.8 10.6 1.5 14.1c3.6 2.9 35.7 28.4 57.6 28.4 13.1 0 22.9-8.2 31.6-15.4 6.7-5.6 12.9-10.8 18.8-10.8s12.2 5.3 18.8 10.8c8.7 7.2 18.5 15.4 31.6 15.4 13 0 23-8.1 31.9-15.3 6.9-5.5 13.4-10.8 19.4-10.8 5.4 0 11.6 5.1 18.2 10.5 8.9 7.3 19 15.6 32.2 15.6 13.1 0 22.9-8.2 31.6-15.4 6.7-5.6 12.9-10.8 18.8-10.8 6.1 0 12.6 5.3 19.5 11 8.6 7.1 18.4 15.1 30.9 15.1 13 0 23-8.1 31.9-15.3 6.9-5.5 13.4-10.8 19.4-10.8 10.5 0 32 13.9 43.9 23.8 1.9 1.5 4.1 2.3 6.4 2.3 2.9 0 5.7-1.2 7.8-3.6 3.5-4.3 2.9-10.6-1.3-14.1zM3.733 77.957c3.6 2.9 35.7 28.4 57.6 28.4 13.1 0 22.9-8.2 31.6-15.4 6.7-5.6 12.9-10.8 18.8-10.8s12.2 5.3 18.8 10.8c8.7 7.2 18.5 15.4 31.6 15.4 13 0 23-8.1 31.9-15.3 6.9-5.5 13.4-10.8 19.4-10.8 5.4 0 11.6 5.1 18.2 10.5 8.9 7.3 19 15.6 32.2 15.6 13.1 0 22.9-8.2 31.6-15.4 6.7-5.6 12.9-10.8 18.8-10.8 6.1 0 12.6 5.3 19.5 11 8.6 7.1 18.4 15.1 30.9 15.1 13 0 23-8.1 31.9-15.3 6.9-5.5 13.4-10.8 19.4-10.8 10.5 0 32 13.9 43.9 23.8 1.9 1.5 4.1 2.3 6.4 2.3 2.9 0 5.7-1.2 7.8-3.6 3.5-4.3 2.9-10.6-1.3-14.1-3.5-3-34.8-28.5-56.8-28.5-13 0-23 8.1-31.9 15.3-6.9 5.5-13.4 10.8-19.4 10.8-5.4 0-11.6-5.1-18.2-10.5-8.9-7.3-19-15.6-32.2-15.6-13.1 0-22.9 8.2-31.6 15.4-6.7 5.6-12.9 10.8-18.8 10.8-6.1 0-12.6-5.3-19.5-11-8.6-7.1-18.4-15.1-30.9-15.1-13 0-23 8.1-31.9 15.3-6.9 5.5-13.4 10.8-19.4 10.8-5.9 0-12.2-5.3-18.8-10.8-8.7-7.2-18.5-15.4-31.6-15.4-13.1 0-22.9 8.2-31.6 15.4-6.7 5.6-12.9 10.8-18.8 10.8-10.6 0-32.7-14-45-23.9-4.3-3.5-10.6-2.8-14.1 1.5s-2.8 10.6 1.5 14.1zM472.733 320.957c-3.5-2.9-34.8-28.5-56.8-28.5-13 0-23 8.1-31.9 15.3-6.9 5.5-13.4 10.8-19.4 10.8-5.4 0-11.6-5.1-18.2-10.5-8.9-7.3-19-15.6-32.2-15.6-13.1 0-22.9 8.2-31.6 15.4-6.7 5.6-12.9 10.8-18.8 10.8-6.1 0-12.6-5.3-19.5-11-8.6-7.1-18.4-15.1-30.9-15.1-13 0-23 8.1-31.9 15.3-6.9 5.5-13.4 10.8-19.4 10.8-5.9 0-12.2-5.3-18.8-10.8-8.7-7.2-18.5-15.4-31.6-15.4-13.1 0-22.9 8.2-31.6 15.4-6.7 5.6-12.9 10.8-18.8 10.8-10.6 0-32.7-14-45-23.9-4.3-3.5-10.6-2.8-14.1 1.5s-2.8 10.6 1.5 14.1c3.6 2.9 35.7 28.4 57.6 28.4 13.1 0 22.9-8.2 31.6-15.4 6.7-5.6 12.9-10.8 18.8-10.8s12.2 5.3 18.8 10.8c8.7 7.2 18.5 15.4 31.6 15.4 13 0 23-8.1 31.9-15.3 6.9-5.5 13.4-10.8 19.4-10.8 5.4 0 11.6 5.1 18.2 10.5 8.9 7.3 19 15.6 32.2 15.6 13.1 0 22.9-8.2 31.6-15.4 6.7-5.6 12.9-10.8 18.8-10.8 6.1 0 12.6 5.3 19.5 11 8.6 7.1 18.4 15.1 30.9 15.1 13 0 23-8.1 31.9-15.3 6.9-5.5 13.4-10.8 19.4-10.8 10.5 0 32 13.9 43.9 23.8 1.9 1.5 4.1 2.3 6.4 2.3 2.9 0 5.7-1.2 7.8-3.6 3.5-4.3 2.9-10.6-1.3-14.1zM472.733 243.557c-3.5-2.9-34.8-28.5-56.8-28.5-13 0-23 8.1-31.9 15.3-6.9 5.5-13.4 10.8-19.4 10.8-5.4 0-11.6-5.1-18.2-10.5-8.9-7.3-19-15.6-32.2-15.6-13.1 0-22.9 8.2-31.6 15.4-6.7 5.6-12.9 10.8-18.8 10.8-6.1 0-12.6-5.3-19.5-11-8.6-7.1-18.4-15.1-30.9-15.1-13 0-23 8.1-31.9 15.3-6.9 5.5-13.4 10.8-19.4 10.8-5.9 0-12.2-5.3-18.8-10.8-8.7-7.2-18.5-15.4-31.6-15.4-13.1 0-22.9 8.2-31.6 15.4-6.7 5.6-12.9 10.8-18.8 10.8-10.6 0-32.7-14-45-23.9-4.3-3.5-10.6-2.8-14.1 1.5s-2.8 10.6 1.5 14.1c3.6 2.9 35.7 28.4 57.6 28.4 13.1 0 22.9-8.2 31.6-15.4 6.7-5.6 12.9-10.8 18.8-10.8s12.2 5.3 18.8 10.8c8.7 7.2 18.5 15.4 31.6 15.4 13 0 23-8.1 31.9-15.3 6.9-5.5 13.4-10.8 19.4-10.8 5.4 0 11.6 5.1 18.2 10.5 8.9 7.3 19 15.6 32.2 15.6 13.1 0 22.9-8.2 31.6-15.4 6.7-5.6 12.9-10.8 18.8-10.8 6.1 0 12.6 5.3 19.5 11 8.6 7.1 18.4 15.1 30.9 15.1 13 0 23-8.1 31.9-15.3 6.9-5.5 13.4-10.8 19.4-10.8 10.5 0 32 13.9 43.9 23.8 1.9 1.5 4.1 2.3 6.4 2.3 2.9 0 5.7-1.3 7.8-3.6 3.5-4.3 2.9-10.6-1.3-14.1zM472.733 398.457c-3.5-3-34.8-28.5-56.8-28.5-13 0-23 8.1-31.9 15.3-6.9 5.5-13.4 10.8-19.4 10.8-5.4 0-11.6-5.1-18.2-10.5-8.9-7.3-19-15.6-32.2-15.6-13.1 0-22.9 8.2-31.6 15.4-6.7 5.6-12.9 10.8-18.8 10.8-6.1 0-12.6-5.3-19.5-11-8.6-7.1-18.4-15.1-30.9-15.1-13 0-23 8.1-31.9 15.3-6.9 5.5-13.4 10.8-19.4 10.8-5.9 0-12.2-5.3-18.8-10.8-8.7-7.2-18.5-15.4-31.6-15.4-13.1 0-22.9 8.2-31.6 15.4-6.7 5.6-12.9 10.8-18.8 10.8-10.6 0-32.7-14-45-23.9-4.3-3.5-10.6-2.8-14.1 1.5s-2.8 10.6 1.5 14.1c3.6 2.9 35.7 28.4 57.6 28.4 13.1 0 22.9-8.2 31.6-15.4 6.7-5.6 12.9-10.8 18.8-10.8s12.2 5.3 18.8 10.8c8.7 7.2 18.5 15.4 31.6 15.4 13 0 23-8.1 31.9-15.3 6.9-5.5 13.4-10.8 19.4-10.8 5.4 0 11.6 5.1 18.2 10.5 8.9 7.3 19 15.6 32.2 15.6 13.1 0 22.9-8.2 31.6-15.4 6.7-5.6 12.9-10.8 18.8-10.8 6.1 0 12.6 5.3 19.5 11 8.6 7.1 18.4 15.1 30.9 15.1 13 0 23-8.1 31.9-15.3 6.9-5.5 13.4-10.8 19.4-10.8 10.5 0 32 13.9 43.9 23.8 1.9 1.5 4.1 2.3 6.4 2.3 2.9 0 5.7-1.2 7.8-3.6 3.5-4.3 2.9-10.6-1.3-14.1z"/></svg><svg viewBox="0 0 15 15" fill="none" id="globe" xmlns="http://www.w3.org/2000/svg"><path fill-rule="evenodd" clip-rule="evenodd" d="M7.5 1.8a5.7 5.7 0 1 0 0 11.4 5.7 5.7 0 0 0 0-11.4ZM.9 7.5a6.6 6.6 0 1 1 13.2 0 6.6 6.6 0 0 1-13.2 0Z" fill="#20343f"/><path fill-rule="evenodd" clip-rule="evenodd" d="M13.5 7.9h-12v-.8h12v.8Z" fill="#20343f"/><path fill-rule="evenodd" clip-rule="evenodd" d="M7.1 13.5v-12h.8v12h-.8zm3.275-6c0-2.173-.781-4.322-2.313-5.743l.476-.514c1.702 1.58 2.537 3.93 2.537 6.257 0 2.327-.835 4.678-2.537 6.257l-.476-.514c1.532-1.42 2.313-3.57 2.313-5.743zM4 7.5c0-2.324.808-4.673 2.458-6.253l.484.506C5.458 3.173 4.7 5.323 4.7 7.5c0 2.176.758 4.327 2.242 5.747l-.484.506C4.808 12.173 4 9.823 4 7.5z" fill="#20343f"/><path fill-rule="evenodd" clip-rule="evenodd" d="M7.5 3.958c2.17 0 4.375.401 5.87 1.236a.35.35 0 1 1-.34.612c-1.35-.754-3.422-1.148-5.53-1.148s-4.18.394-5.53 1.148a.35.35 0 1 1-.34-.612c1.495-.835 3.7-1.236 5.87-1.236zm0 6.892c2.17 0 4.375-.401 5.87-1.236a.35.35 0 1 0-.34-.612c-1.35.754-3.422 1.148-5.53 1.148s-4.18-.394-5.53-1.148a.35.35 0 1 0-.34.611c1.495.836 3.7 1.237 5.87 1.237z" fill="#20343f"/></svg><svg fill="#20343f" viewBox="0 0 64 64" xml:space="preserve" id="humidity" xmlns="http://www.w3.org/2000/svg"><path d="M49.7 35.9C47.3 21.2 29.5 4 28.7 3.3c-.4-.4-1-.4-1.4 0C26.4 4.1 6 23.7 6 39c0 12.1 9.9 22 22 22 3.4 0 6.7-.8 9.7-2.3 2.1 1.4 4.6 2.3 7.3 2.3 7.2 0 13-5.8 13-13 0-5.5-3.4-10.2-8.3-12.1zM28 59C17 59 8 50 8 39 8 26.1 24.4 9 28 5.4 31.3 8.7 45 23 47.6 35.3c-.9-.2-1.7-.3-2.6-.3-7.2 0-13 5.8-13 13 0 3.7 1.5 7 4 9.3a19.8 19.8 0 0 1-8 1.7zm17 0c-6.1 0-11-4.9-11-11s4.9-11 11-11 11 4.9 11 11-4.9 11-11 11z"/><path d="M28 54c-8.3 0-15-6.7-15-15 0-.6-.4-1-1-1s-1 .4-1 1c0 9.4 7.6 17 17 17 .6 0 1-.4 1-1s-.4-1-1-1zM48.4 40.1c-.5-.2-1.1 0-1.3.5l-6 14c-.2.5 0 1.1.5 1.3.1.1.3.1.4.1.4 0 .8-.2.9-.6l6-14c.2-.5 0-1.1-.5-1.3zM44 44c0-1.7-1.3-3-3-3s-3 1.3-3 3 1.3 3 3 3 3-1.3 3-3zm-4 0c0-.6.4-1 1-1s1 .4 1 1-.4 1-1 1-1-.4-1-1zM49 49c-1.7 0-3 1.3-3 3s1.3 3 3 3 3-1.3 3-3-1.3-3-3-3zm0 4c-.6 0-1-.4-1-1s.4-1 1-1 1 .4 1 1-.4 1-1 1z"/></svg><svg viewBox="0 0 76 76" baseProfile="full" xml:space="preserve" id="imperial" xmlns="http://www.w3.org/2000/svg"><path fill="#20343f" d="M41.5 49a5.5 5.5 0 1 1-6.5-5.41V31h2v12.59c2.56.471 4.5 2.714 4.5 5.41Zm3.5 0a9 9 0 1 1-13-8.064V22a4 4 0 1 1 8 0v18.935A9 9 0 0 1 45 49Zm-11-6.71a7 7 0 1 0 4 0V22a2 2 0 0 0-4 0v20.29ZM31 21v1h-6v-1h6Zm0 3v1h-4v-1h4Zm0 3v1h-6v-1h6Zm0 3v1h-4v-1h4Zm0 3v1h-6v-1h6Zm0 3v1h-4v-1h4Zm0 3v1h-6v-1h6Zm19.46-11.64h-4.48v3.173h4.107v2.427H45.98V38h-2.987V24.933h7.467v2.427Zm4.474 2.427c-.727 0-1.343-.246-1.849-.738a2.412 2.412 0 0 1-.758-1.797c0-.704.252-1.297.758-1.78.505-.484 1.122-.725 1.85-.725.722 0 1.34.241 1.851.724.512.484.767 1.077.767 1.781a2.4 2.4 0 0 1-.767 1.797 2.575 2.575 0 0 1-1.852.738Zm.006-3.734c-.313 0-.578.117-.795.35a1.21 1.21 0 0 0-.325.855c0 .336.108.624.325.863.217.24.482.359.795.359.307 0 .57-.12.79-.359.22-.239.33-.527.33-.863a1.21 1.21 0 0 0-.325-.855 1.044 1.044 0 0 0-.795-.35Z"/></svg><svg viewBox="0 0 76 76" baseProfile="full" xml:space="preserve" id="metric" xmlns="http://www.w3.org/2000/svg"><path fill="#20343f" d="M41.5 49a5.5 5.5 0 1 1-6.5-5.41V31h2v12.59c2.56.471 4.5 2.714 4.5 5.41Zm3.5 0a9 9 0 1 1-13-8.064V22a4 4 0 1 1 8 0v18.935A9 9 0 0 1 45 49Zm-11-6.71a7 7 0 1 0 4 0V22a2 2 0 0 0-4 0v20.29ZM31 21v1h-6v-1h6Zm0 3v1h-4v-1h4Zm0 3v1h-6v-1h6Zm0 3v1h-4v-1h4Zm0 3v1h-6v-1h6Zm0 3v1h-4v-1h4Zm0 3v1h-6v-1h6Zm21.827-1.502c-.943.46-2.175.689-3.696.689-1.985 0-3.545-.587-4.681-1.76-1.136-1.172-1.703-2.733-1.703-4.683 0-2.079.638-3.765 1.916-5.058 1.277-1.293 2.935-1.94 4.973-1.94 1.262 0 2.325.164 3.19.49v2.87c-.851-.497-1.821-.746-2.91-.746-1.196 0-2.16.375-2.895 1.126-.734.75-1.101 1.767-1.101 3.05 0 1.231.346 2.212 1.038 2.942.693.73 1.625 1.095 2.797 1.095 1.118 0 2.142-.248 3.072-.746v2.671Zm4.474-7.711c-.727 0-1.344-.246-1.85-.738a2.412 2.412 0 0 1-.758-1.797c0-.704.253-1.297.759-1.78.505-.484 1.122-.725 1.849-.725.723 0 1.34.241 1.852.724.511.484.767 1.077.767 1.781a2.4 2.4 0 0 1-.767 1.797 2.575 2.575 0 0 1-1.852.738Zm.006-3.734c-.313 0-.578.117-.795.35a1.21 1.21 0 0 0-.325.855c0 .336.108.624.325.863.217.24.482.359.795.359.307 0 .57-.12.79-.359.22-.239.33-.527.33-.863a1.21 1.21 0 0 0-.325-.855 1.044 1.044 0 0 0-.795-.35Z"/></svg><svg viewBox="0 -0.5 17 17" class="axsi-glyph axsi-glyph-drop-water" id="percip" xmlns="http://www.w3.org/2000/svg"><path d="M3 10.333C3 13.463 5.427 16 8.418 16 11.41 16 14 13.463 14 10.333 14 7.204 8.418 0 8.418 0S3 7.204 3 10.333Z" fill="#20343f" class="axsi-glyph-fill" fill-rule="evenodd"/></svg><svg viewBox="0 0 64 64" id="satellite" xmlns="http://www.w3.org/2000/svg"><path d="M30.37 23.82a20.77 20.77 0 0 0 2.8-3.13c.2-.37-.3-.29-.59-.45s-3.17 2.57-3 3c.09.08.54.58.79.58zm7.71.46c-.29 0-4.42 4.32-4.25 4.83a9.21 9.21 0 0 0 2.09 2.13c.29.08 4.25-4.3 4.45-4.8s-2-2.16-2.29-2.16zm1 2.37c-.17.13-2.79 3.38-3 3.25s-1.21-.79-1.08-.9a32.28 32.28 0 0 1 3-3.35c.27-.07 1.21.88 1 1zm3.08.63c-.33-.17-4.57 4.77-4.54 5a10.07 10.07 0 0 0 2.34 2.08c.33.08 4.12-4.83 4.29-5.17s-1.79-1.75-2.13-1.91zm1 1.91A41.35 41.35 0 0 1 39.87 33c-.16-.09-.75-.92-.91-1s3.12-3.54 3.33-3.5.92.5.79.69zm-11 2c-.67.25-8.5 8-8.75 8.84s3.83 4.2 4.17 4.45 1.16 0 1.79-.62 7.08-8.67 7.12-9.08S32.59 31 32 31.15zm-4.04 12.25c-.29.05-3.79-3.12-3.66-3.5s7.33-7.45 7.75-7.87c.18-.18 3 2.62 3 2.79s-6.79 8.54-7.09 8.58zm1.3-7.75c-.17 0-3.38 4.05-3.55 4.13 0 0 .09.62.25.71s3.42-4.29 3.59-4.46-.13-.33-.29-.38zm.37 2.13c-.17 0-3 3.17-3 3.17.17.16.42.66.54.7a42.23 42.23 0 0 0 2.79-3.33c.13-.17-.12-.54-.33-.54zM61 40.07a44.81 44.81 0 0 0-6.83-6.13 3.66 3.66 0 0 0-5.09.34c-.62.58-6 7.37-6 7.37s-2.54-2.41-2.66-2.5 5.46-5.79 7.33-8.41A3.13 3.13 0 0 0 47 26c-.54-.42-9.5-8-11.67-9.63s-4.75.34-5.21.92-5.7 6.42-5.7 6.42l-2.8-2.34s2.75-2.54 4.55-4.58 2.2-3.63 1.79-4.63-8.46-7.22-10.79-7.88-3.67 1.62-5.3 3.37-9.33 9.84-9.33 11.25 6 8.29 7.83 9.67 2.8 1.25 3.8.54 4.91-5 4.91-5l2.75 2.25s-5.91 8-6.41 9.21a2.25 2.25 0 0 0 .37 2.66c.58.59 3.79 3.46 3.79 3.46l-1.16 1.79s-5.75-1.83-8.05-1.75-3.25 1-3.16 1.59S13.08 49 13.08 49l-2.66 5.29a3.8 3.8 0 0 0-1.05 0c-.37.08-2.29.83-2.41 2.29s.83 3.37 3.54 2.54 1.33-3.46 1.33-3.46l.67-.58c.54-.46 3.25-3.17 3.25-3.17s7.62 6.21 7.92 6.21 1.58-2.42 1.33-6a10.94 10.94 0 0 0-3-6.33l.83-.88s4.67 4.21 6.08 4.46S31 49 33.08 47.24a42.28 42.28 0 0 0 5.38-6.13 16.09 16.09 0 0 1 2.83 3c0 .25-4.21 5.29-5.17 6.79s-.12 1.79.25 2.21a71.75 71.75 0 0 0 7.55 6.17c1.83 1 3.25.54 3.87-.05S58.62 46.28 60.33 44s1.09-3.26.67-3.93zM55.21 37c.21 0 1.79 1.41 1.71 1.62a46.52 46.52 0 0 1-3.59 4.75 13.24 13.24 0 0 1-1.91-1.75A44 44 0 0 1 55.21 37zM48 46a31.77 31.77 0 0 1 2.79-3.05c.17.09 1.79 1.34 1.67 1.55s-2.59 3.37-2.75 3.2zm.87 2.62c-.08.21-1.83 2.38-2.08 2.29a20.09 20.09 0 0 1-1.88-1.58 21.41 21.41 0 0 1 2.3-2.42c.12.09 1.71 1.49 1.62 1.7zm2.84-13.87c.87-.05 2.45 1.41 2.45 1.41s-3.45 5-3.66 4.92a28.6 28.6 0 0 1-2.59-2.29c-.14-.17 2.88-4.01 3.76-4.05zM47 39.94a9.87 9.87 0 0 1 2.75 2.42 27.57 27.57 0 0 1-2.54 3 22.73 22.73 0 0 1-2.92-2.25A29.12 29.12 0 0 1 47 39.94zm-3 4.3c.29.08 2.54 1.87 2.37 2.08s-2 2.5-2.29 2.5a11.62 11.62 0 0 1-2.37-2c-.04-.17 1.96-2.67 2.29-2.58zM20 20.49a30.78 30.78 0 0 1-3.33-2.71s2.37-2.75 2.5-2.71 3.25 2.62 3.12 2.83A27.18 27.18 0 0 1 20 20.49zm-7-6.09a15.59 15.59 0 0 1 2.46-2.54 19.56 19.56 0 0 1 2.91 2.54 21.92 21.92 0 0 1-2.2 2.5A29.79 29.79 0 0 1 13 14.4zm2.33 3.25a20.14 20.14 0 0 1-2.87 3.21c-.13-.17-2.54-2.79-2.54-2.75 0 .27 2.16-3 2.37-2.87s3.17 2.12 3.04 2.41zm8.29-7.25c.13 0 2.75 1.59 2.34 2.84A13.14 13.14 0 0 1 23.21 17c-.13-.09-3.17-2.84-3.17-2.84s3.46-3.76 3.58-3.76zm-1-.46c-.12.13-3.25 3.71-3.5 3.55s-2.83-2.59-2.87-2.71 3.21-3.25 3.21-3.25a30.24 30.24 0 0 1 3.16 2.41zM16.21 6c.71.08 2.33.87 2.16 1.08a39.59 39.59 0 0 1-3 3 23 23 0 0 1-1.71-1.71S15.5 5.94 16.21 6zM13 9.4c.17.09 1.79 1.46 1.62 1.63s-2.16 2.71-2.33 2.58a21.41 21.41 0 0 1-1.71-1.79A22.11 22.11 0 0 1 13 9.4zm-3.33 3.5c.29.09 1.87 1.25 1.7 1.54S9.29 17.32 9 17.19a13.48 13.48 0 0 1-1.75-1.83c-.03-.2 2.12-2.54 2.42-2.46zM6 20.69a9.72 9.72 0 0 1-1.42-1.87c-.08-.38 1.79-2.42 2-2.29s1.84 1.37 1.67 1.58S6.17 20.82 6 20.69zm3.33 4c-.17-.08-2.71-3.25-2.71-3.29a12.57 12.57 0 0 1 2.63-2.58c.16.12 2.66 2.41 2.58 2.71a17.69 17.69 0 0 1-2.54 3.12zm3.25 3.13a8.69 8.69 0 0 1-2.62-2.59 25.16 25.16 0 0 1 2.91-3c.21.09 3 2.71 2.88 3s-2 3.05-3.21 2.55zm3.92-3.34c-.17-.08-3.21-3.16-3.21-3.16.17-.17 3-2.79 3-2.79s3.08 2.41 3 2.75a20.12 20.12 0 0 1-2.83 3.16zM19.71 23c-.25-.1.91-1.17 1.12-1.09a16.36 16.36 0 0 1 2.71 2.59 8.52 8.52 0 0 1-1 1.08s-2.62-2.47-2.83-2.58zm-8.59 34.32c-.2.87-2.2 1.62-2.91.54s.37-2 1-2.25a1.62 1.62 0 0 1 1.91 1.71zm4-5.92a37.94 37.94 0 0 1-3.46 3.54c-.2 0-.58 0-.41-.25s2.33-4.66 2.62-4.83 1.55 1.14 1.21 1.54zM23 53.65c0 .63 0 1.38-.25 1.29s-1.17-.62-1.13-.75.25-3.12 0-3.41a3.51 3.51 0 0 0-.83-.54 23.05 23.05 0 0 1-.21 3.08l-.62-.63a12.29 12.29 0 0 0-.13-2.45c-.17-.13-.58-.42-.71-.38s0 2.21-.21 2.13-3.91-3.63-5.62-5.3-3.54-3.16-3.33-3.33a19.25 19.25 0 0 1 6.12.92c2.75.83 3.71 1.41 5 3.25A16.63 16.63 0 0 1 23 53.65zm-.88-9.5c-.25.25-.58.63-.75.59s-.91-.67-1.25-.8.17-1.12.38-1.33 1.87 1.29 1.62 1.54zm16.84-6a9.06 9.06 0 0 0-.84-1.87c-.16 0-.54.45-.54.45a12 12 0 0 1 .75 2.13c-.08.17-1 1.17-1 1.17a16.76 16.76 0 0 0-.75-2.38c-.12 0-.46.46-.46.46s.8 2.42.59 2.62-1.09 1.21-1.09 1.21l-.75-2.21s-.75.25-.62.46a15.07 15.07 0 0 1 .75 2.34 2.11 2.11 0 0 1-.33.5l-1-2.46-.55.58a18.15 18.15 0 0 1 .92 2.5 11.74 11.74 0 0 1-.75 1l-.87-2.37s-.55.16-.5.41.83 2.29.66 2.54-.54.88-.54.88a12.93 12.93 0 0 0-1.12-2.54c-.21 0-.59.33-.55.46s1.13 2.5.92 2.7a5.6 5.6 0 0 1-.79.55 15.07 15.07 0 0 0-.79-2.38c-.17 0-.75 0-.67.17a10.74 10.74 0 0 1 .54 2.54c-.16 0-1-.33-4.16-2.83s-8.3-7.38-8.42-8.09 1-2.08 1.42-2.58c1.27-1.7 8-9.92 10.5-12.75s4.21-4.12 5.58-3.58 9.96 8.22 10.79 8.83 2 1.71 1.21 3.25-7.5 8.25-7.5 8.25zm.33 2.54a4.68 4.68 0 0 1 .71-.79c.2-.1 2.71 2.25 2.58 2.5s-.5.92-.62.83a21.59 21.59 0 0 1-2.67-2.58zm.83 13.21c-.33-.08-2.5-1.5-2.2-2.25a31.73 31.73 0 0 1 2.75-3.67c.16.09 2.75 2.05 2.54 2.25s-2.75 3.71-3.09 3.63zm2.42 1.83c-.33-.08-1.54-.87-1.46-1.12S44 50.65 44 50.65c.33.09 1.91 1.29 1.75 1.5s-2.88 3.63-3.21 3.54zm4.67 1.75c-.67.75-1.25 1.05-2.13.55s-1.83-1.21-1.71-1.5 3.25-3.67 3.25-3.67a21.43 21.43 0 0 1 2.59 2.12c-.09.13-1.34 1.71-2 2.46zM50 53.82c-.33-.17-2.67-1.88-2.54-2a25.79 25.79 0 0 1 2.17-2.29 17.14 17.14 0 0 1 2.25 2c-.05.16-1.51 2.47-1.88 2.29zm2.71-3.38c-.13-.08-2.08-2.08-2.25-2.2 0 0 2.75-3.38 2.87-3.34a12.16 12.16 0 0 1 2.09 2.1 26.06 26.06 0 0 1-2.67 3.44zm7-8.91a24 24 0 0 1-3.5 4.33c-.12 0-2.12-1.92-2.12-1.92.2-.29 3.58-4.62 3.58-4.62s2.33 1.42 2.12 2.21z" fill="#20343f"/></svg><svg viewBox="0 0 24 24" fill="none" id="search" xmlns="http://www.w3.org/2000/svg"><path d="M0 0h24v24H0z"/><path fill-rule="evenodd" clip-rule="evenodd" d="M2 12C2 6.477 6.477 2 12 2s10 4.477 10 10-4.477 10-10 10S2 17.523 2 12Zm7-.5a2.5 2.5 0 1 1 5 0 2.5 2.5 0 0 1-5 0ZM11.5 7a4.5 4.5 0 1 0 2.396 8.31l1.397 1.397a1 1 0 0 0 1.414-1.414l-1.397-1.397A4.5 4.5 0 0 0 11.5 7Z" fill="#20343f"/></svg><svg viewBox="0 0 76 76" baseProfile="full" xml:space="preserve" id="standard" xmlns="http://www.w3.org/2000/svg"><path fill="#20343f" d="M41.5 49a5.5 5.5 0 1 1-6.5-5.41V31h2v12.59c2.56.471 4.5 2.714 4.5 5.41Zm3.5 0a9 9 0 1 1-13-8.064V22a4 4 0 1 1 8 0v18.935A9 9 0 0 1 45 49Zm-11-6.71a7 7 0 1 0 4 0V22a2 2 0 0 0-4 0v20.29ZM31 21v1h-6v-1h6Zm0 3v1h-4v-1h4Zm0 3v1h-6v-1h6Zm0 3v1h-4v-1h4Zm0 3v1h-6v-1h6Zm0 3v1h-4v-1h4Zm0 3v1h-6v-1h6Zm23.32-1h-3.68l-3.772-5.676-.344-.72h-.044V38h-2.987V24.933h2.987v6.178h.044l.361-.73 3.582-5.448h3.48l-4.527 6.233L54.32 38Zm3.54-8.213c-.726 0-1.343-.246-1.848-.738a2.412 2.412 0 0 1-.759-1.797c0-.704.253-1.297.759-1.78.505-.484 1.122-.725 1.849-.725.723 0 1.34.241 1.852.724.511.484.767 1.077.767 1.781a2.4 2.4 0 0 1-.767 1.797 2.575 2.575 0 0 1-1.852.738Zm.007-3.734c-.313 0-.578.117-.795.35a1.21 1.21 0 0 0-.325.855c0 .336.108.624.325.863.217.24.482.359.795.359.307 0 .57-.12.79-.359.22-.239.33-.527.33-.863a1.21 1.21 0 0 0-.326-.855 1.044 1.044 0 0 0-.794-.35Z"/></svg><svg viewBox="0 0 76 76" baseProfile="full" xml:space="preserve" id="sun-rise" xmlns="http://www.w3.org/2000/svg"><path fill="#20343f" d="m15.72 45.413 9.152.331a15.75 15.75 0 0 0-2.383 5.835l-6.77-6.166Zm12.982-13.12 6.237 6.704a15.741 15.741 0 0 0-5.81 2.444l-.427-9.148Zm18.458-.097-.33 9.152a15.75 15.75 0 0 0-5.835-2.383l6.165-6.769Zm13.12 12.983-6.704 6.236a15.74 15.74 0 0 0-2.443-5.81l9.148-.426ZM41.328 42.29c5.151 1.38 8.706 5.745 9.303 10.735H59v2H17v-2h8.47a12.77 12.77 0 0 1 .344-1.778c1.81-6.758 8.756-10.768 15.513-8.957ZM38 18.5l7.5 7.5H40v8h-4v-8h-5.5l7.5-7.5Z"/></svg><svg viewBox="0 0 76 76" baseProfile="full" xml:space="preserve" id="sun-set" xmlns="http://www.w3.org/2000/svg"><path fill="#20343f" d="m15.72 32.388 9.152.331a15.75 15.75 0 0 0-2.383 5.835l-6.77-6.166Zm12.982-13.12 6.237 6.704a15.74 15.74 0 0 0-5.81 2.444l-.427-9.148Zm18.458-.097-.33 9.152a15.752 15.752 0 0 0-5.835-2.383l6.165-6.769Zm13.12 12.983-6.704 6.236a15.741 15.741 0 0 0-2.443-5.81l9.148-.426Zm-18.953-2.889c5.151 1.38 8.706 5.745 9.303 10.735H59v2H17v-2h8.47a12.77 12.77 0 0 1 .344-1.778c1.81-6.758 8.756-10.768 15.513-8.957ZM38 59.582l-7.5-7.5H36v-8h4v8h5.5l-7.5 7.5Z"/></svg><svg viewBox="0 -7.5 63 63" id="wind" xmlns="http://www.w3.org/2000/svg"><g stroke="#20343f" stroke-width="2" fill="none" fill-rule="evenodd"><path d="M34.8 9.5c0-4.7 3.9-8.5 8.6-8.5C48.2 1 52 4.8 52 9.5S48.1 18 43.4 18H4M47 31.5c0 4.1 3.3 7.5 7.5 7.5 4.1 0 7.5-3.4 7.5-7.5S58.7 24 54.5 24H20M27 39.5c0 4.1 3.3 7.5 7.4 7.5 4.1 0 7.4-3.3 7.4-7.5 0-4.1-3.3-7.5-7.4-7.5H0"/></g></svg><svg viewBox="0 0 72 72" xml:space="preserve" id="wind-deg" xmlns="http://www.w3.org/2000/svg"><g transform="translate(5 5)" fill="none" stroke="#20343f" stroke-width="2"><path d="M40 14.1c-1.9-1-4.1-1.7-6.3-2.1L31 0l-2.7 12.1c-8.4 1.2-15.1 7.8-16.3 16.3L0 31l12.1 2.7c.3 2.3 1 4.4 2.1 6.3M22 47.9c1.9 1 4.1 1.7 6.3 2.1L31 62l2.7-12.1c8.4-1.2 15.1-7.8 16.3-16.3L62 31l-12.1-2.7c-.3-2.3-1-4.4-2.1-6.3"/><path d="M43.7 28.1c.2.9.3 1.9.3 2.9 0 7.2-5.8 13-13 13-1 0-2-.1-3-.3M18.3 33.9C18.1 33 18 32 18 31c0-7.2 5.8-13 13-13 1.1 0 2.1.1 3.1.4M4.8 57.2l22-30.4 30.4-22-22 30.4-30.4 22z"/><circle cx="31" cy="31" r="2"/></g></svg></svg>